#define grammar_width 16
#define grammar_height 16
static char grammar_bits[] = {
  0x00, 0x00, 0x00, 0x00, 0x00, 0x00, 0x00, 0x06, 0x00, 0x0C, 0x00, 0x18, 
  0x00, 0x30, 0xFC, 0x7F, 0xFC, 0x7F, 0x00, 0x30, 0x00, 0x18, 0x00, 0x0C, 
  0x00, 0x06, 0x00, 0x00, 0x00, 0x00, 0x00, 0x00, };
