#define pred_width 16
#define pred_height 16
static char pred_bits[] = {
  0x00, 0x00, 0x00, 0x00, 0x08, 0x00, 0x1C, 0x00, 0x3E, 0x00, 0x1C, 0x00, 
  0x08, 0x00, 0xC0, 0x3F, 0xC0, 0x3F, 0x08, 0x00, 0x1C, 0x00, 0x3E, 0x00, 
  0x1C, 0x00, 0x08, 0x00, 0x00, 0x00, 0x00, 0x00, };
